<svg xmlns="http://www.w3.org/2000/svg" version="1.1" xmlns:xlink="http://www.w3.org/1999/xlink" xmlns:svgjs="http://svgjs.dev/svgjs" width="1000" height="1000" viewBox="0 0 1000 1000"><rect width="1000" height="1000" fill="#444444"></rect><g transform="matrix(0.7,0,0,0.7,149.71948848160832,236.66340080971656)"><svg viewBox="0 0 328 247" data-background-color="#444444" preserveAspectRatio="xMidYMid meet" height="753" width="1000" xmlns="http://www.w3.org/2000/svg" xmlns:xlink="http://www.w3.org/1999/xlink"><g id="tight-bounds" transform="matrix(1,0,0,1,0.13143968290353314,-0.09999999999999432)"><svg viewBox="0 0 327.73712063419293 247.2" height="247.2" width="327.73712063419293"><rect width="327.73712063419293" height="247.20000000000002" fill="url(#75ec3418-2d5a-4d4d-9e53-300837fd0ff6)" mask="url(&quot;#21853af6-37ba-4fdd-9c74-7648d958d8ce&quot;)" data-fill-palette-color="accent"></rect><g><svg viewBox="0 0 395.52 298.3261212852657" height="247.2" width="327.73712063419293"><g transform="matrix(1,0,0,1,0,223.74600798610197)"><svg viewBox="0 0 395.52 74.58011329916374" height="74.58011329916374" width="395.52"><g id="textblocktransform"><svg viewBox="0 0 395.52 74.58011329916374" height="74.58011329916374" width="395.52" id="textblock"><g><svg viewBox="0 0 395.52 74.58011329916374" height="74.58011329916374" width="395.52"><g transform="matrix(1,0,0,1,0,0)"><svg width="395.52" viewBox="-0.55 -34.95 185.34 34.95" height="74.58011329916374" data-palette-color="#ffffff"><g class="undefined-text-0" data-fill-palette-color="primary" id="text-0"><path d="M12.1-2.15L33.85-2.15 33.85 0-0.55 0-0.55-2.15 4.3-2.15 4.3-34.95 16.65-34.95Q24.7-34.95 28.38-31.83 32.05-28.7 32.05-22.23 32.05-15.75 28.28-12.75 24.5-9.75 16.75-9.75L16.75-9.75 12.1-9.75 12.1-2.15ZM17.35-16.5Q21.25-16.5 22.65-18.07 24.05-19.65 24.05-22.68 24.05-25.7 22.23-26.98 20.4-28.25 16.55-28.25L16.55-28.25 12.1-28.25 12.1-16.5 17.35-16.5ZM45.95-2.15L50.25-2.15 50.25 0 33.85 0 33.85-2.15 38.15-2.15 38.15-34.95 45.95-34.95 45.95-2.15ZM49.7-2.15L54.55-2.15 54.55-34.95 61.85-34.95 79-12.45 79-34.95 86.8-34.95 86.8-2.15 91.65-2.15 91.65 0 79 0 62.35-21.9 62.35 0 49.7 0 49.7-2.15ZM110.19-2.15L121.49-2.15 121.49 0 91.09 0 91.09-2.15 102.39-2.15 102.39-28.2 92.49-28.2 92.49-34.95 120.09-34.95 120.09-28.2 110.19-28.2 110.19-2.15ZM148.49-2.15L153.34-2.15 153.34 0 120.94 0 120.94-2.15 125.79-2.15 125.79-34.95 133.59-34.95 133.59-6.95 148.49-6.95 148.49-2.15ZM149.34-2.15L154.19-2.15 154.19-34.95 179.39-34.95 179.39-28 161.99-28 161.99-20.8 177.64-20.8 177.64-14.15 161.99-14.15 161.99-6.9 179.94-6.9 179.94-2.15 184.79-2.15 184.79 0 149.34 0 149.34-2.15Z" fill="#ffffff" data-fill-palette-color="primary"></path></g></svg></g></svg></g></svg></g></svg></g><g transform="matrix(1,0,0,1,61.448055092223086,0)"><svg viewBox="0 0 272.6238898155538 206.1394331588886" height="206.1394331588886" width="272.6238898155538"><g><svg xmlns="http://www.w3.org/2000/svg" xmlns:xlink="http://www.w3.org/1999/xlink" xml:space="preserve" version="1.1" style="shape-rendering:geometricPrecision;text-rendering:geometricPrecision;image-rendering:optimizeQuality;" viewBox="0 0 477 360.67458975556" x="0" y="0" fill-rule="evenodd" clip-rule="evenodd" width="272.6238898155538" height="206.1394331588886" class="icon-icon-0" data-fill-palette-color="accent" id="icon-0"></svg></g></svg></g><g></g></svg></g><defs><linearGradient x1="0" x2="1" y1="0.578" y2="0.595" id="75ec3418-2d5a-4d4d-9e53-300837fd0ff6"><stop stop-color="#6ee2f5" offset="0"></stop><stop stop-color="#6454f0" offset="1"></stop></linearGradient></defs><mask id="21853af6-37ba-4fdd-9c74-7648d958d8ce"><g id="SvgjsG1084"><svg viewBox="0 0 327.73712063419293 247.2" height="247.2" width="327.73712063419293"><g><svg viewBox="0 0 395.52 298.3261212852657" height="247.2" width="327.73712063419293"><g transform="matrix(1,0,0,1,0,223.74600798610197)"><svg viewBox="0 0 395.52 74.58011329916374" height="74.58011329916374" width="395.52"><g id="SvgjsG1083"><svg viewBox="0 0 395.52 74.58011329916374" height="74.58011329916374" width="395.52" id="SvgjsSvg1082"><g><svg viewBox="0 0 395.52 74.58011329916374" height="74.58011329916374" width="395.52"><g transform="matrix(1,0,0,1,0,0)"><svg width="395.52" viewBox="-0.55 -34.95 185.34 34.95" height="74.58011329916374" data-palette-color="#ffffff"><g class="undefined-text-0" data-fill-palette-color="primary" id="SvgjsG1081"></g></svg></g></svg></g></svg></g></svg></g><g transform="matrix(1,0,0,1,61.448055092223086,0)"><svg viewBox="0 0 272.6238898155538 206.1394331588886" height="206.1394331588886" width="272.6238898155538"><g><svg xmlns="http://www.w3.org/2000/svg" xmlns:xlink="http://www.w3.org/1999/xlink" xml:space="preserve" version="1.1" style="shape-rendering:geometricPrecision;text-rendering:geometricPrecision;image-rendering:optimizeQuality;" viewBox="0 0 477 360.67458975556" x="0" y="0" fill-rule="evenodd" clip-rule="evenodd" width="272.6238898155538" height="206.1394331588886" class="icon-icon-0" data-fill-palette-color="accent" id="SvgjsSvg1080"><g fill="white"><path class="" d="M0 324c89 12 183-2 346-16-85-44-186-34-302-36 150-61 205-175 204-272 41 43 37 137-2 179 47-23 43-107 36-129 41 75 72 185 95 256 48-4 60-7 100-3-206 57-367 85-477 21z" fill="white"></path></g></svg></g></svg></g><g></g></svg></g><defs><mask></mask></defs></svg></g></mask></svg><rect width="327.73712063419293" height="247.2" fill="none" stroke="none" visibility="hidden"></rect></g></svg></g></svg>