<svg xmlns="http://www.w3.org/2000/svg" version="1.1" xmlns:xlink="http://www.w3.org/1999/xlink" xmlns:svgjs="http://svgjs.dev/svgjs" width="1000" height="1000" viewBox="0 0 1000 1000"><rect width="1000" height="1000" fill="#444444"></rect><g transform="matrix(0.7,0,0,0.7,149.57575757575756,328.0264250786792)"><svg viewBox="0 0 396 195" data-background-color="#444444" preserveAspectRatio="xMidYMid meet" height="492" width="1000" xmlns="http://www.w3.org/2000/svg" xmlns:xlink="http://www.w3.org/1999/xlink"><g id="tight-bounds" transform="matrix(1,0,0,1,0.2400000000000091,-0.12820235291070503)"><svg viewBox="0 0 395.52 195.2564047058214" height="195.2564047058214" width="395.52"><g><svg viewBox="0 0 395.52 195.2564047058214" height="195.2564047058214" width="395.52"><g transform="matrix(1,0,0,1,0,120.67629140665768)"><svg viewBox="0 0 395.52 74.58011329916374" height="74.58011329916374" width="395.52"><g id="textblocktransform"><svg viewBox="0 0 395.52 74.58011329916374" height="74.58011329916374" width="395.52" id="textblock"><g><svg viewBox="0 0 395.52 74.58011329916374" height="74.58011329916374" width="395.52"><g transform="matrix(1,0,0,1,0,0)"><svg width="395.52" viewBox="-0.55 -34.95 185.34 34.95" height="74.58011329916374" data-palette-color="#ffffff"><g class="undefined-text-0" data-fill-palette-color="primary" id="text-0"><path d="M12.1-2.15L33.85-2.15 33.85 0-0.55 0-0.55-2.15 4.3-2.15 4.3-34.95 16.65-34.95Q24.7-34.95 28.38-31.83 32.05-28.7 32.05-22.23 32.05-15.75 28.28-12.75 24.5-9.75 16.75-9.75L16.75-9.75 12.1-9.75 12.1-2.15ZM17.35-16.5Q21.25-16.5 22.65-18.07 24.05-19.65 24.05-22.68 24.05-25.7 22.23-26.98 20.4-28.25 16.55-28.25L16.55-28.25 12.1-28.25 12.1-16.5 17.35-16.5ZM45.95-2.15L50.25-2.15 50.25 0 33.85 0 33.85-2.15 38.15-2.15 38.15-34.95 45.95-34.95 45.95-2.15ZM49.7-2.15L54.55-2.15 54.55-34.95 61.85-34.95 79-12.45 79-34.95 86.8-34.95 86.8-2.15 91.65-2.15 91.65 0 79 0 62.35-21.9 62.35 0 49.7 0 49.7-2.15ZM110.19-2.15L121.49-2.15 121.49 0 91.09 0 91.09-2.15 102.39-2.15 102.39-28.2 92.49-28.2 92.49-34.95 120.09-34.95 120.09-28.2 110.19-28.2 110.19-2.15ZM148.49-2.15L153.34-2.15 153.34 0 120.94 0 120.94-2.15 125.79-2.15 125.79-34.95 133.59-34.95 133.59-6.95 148.49-6.95 148.49-2.15ZM149.34-2.15L154.19-2.15 154.19-34.95 179.39-34.95 179.39-28 161.99-28 161.99-20.8 177.64-20.8 177.64-14.15 161.99-14.15 161.99-6.9 179.94-6.9 179.94-2.15 184.79-2.15 184.79 0 149.34 0 149.34-2.15Z" fill="#ffffff" data-fill-palette-color="primary"></path></g></svg></g></svg></g></svg></g></svg></g><g transform="matrix(1,0,0,1,143.51784382145775,0)"><svg viewBox="0 0 108.48431235708446 103.0697165794443" height="103.0697165794443" width="108.48431235708446"><g><svg xmlns="http://www.w3.org/2000/svg" xmlns:xlink="http://www.w3.org/1999/xlink" version="1.1" x="0" y="0" viewBox="3.878 5.5 82.88700000000001 78.75" enable-background="new 0 0 90 90" xml:space="preserve" height="103.0697165794443" width="108.48431235708446" class="icon-icon-0" data-fill-palette-color="accent" id="icon-0"><path d="M45.721 64.865l33.258 6.47L45.721 18.09C45.721 18.09 63.949 55.963 45.721 64.865z" fill="#00d1cd" data-fill-palette-color="accent"></path><rect x="45.141" y="5.5" width="1.16" height="68.77" fill="#00d1cd" data-fill-palette-color="accent"></rect><path d="M12.159 65.221" fill="#00d1cd" data-fill-palette-color="accent"></path><path d="M45.141 69.334H10.02c0 0 20.886-53.998 35.121-63.834V69.334z" fill="#00d1cd" data-fill-palette-color="accent"></path><path d="M79.612 71.309c-2.304 0-5.76 5.358-5.76 5.358l-15.025 0.147-6.52-5.506H12.959v5.506H3.878c1.591 6.329 8.15 7.436 8.15 7.436h64.736c5.873 0 10.001-12.757 10.001-12.757L79.612 71.309zM21.646 78.438c-1.15 0-2.083-0.933-2.083-2.084 0-1.15 0.933-2.084 2.083-2.084 1.151 0 2.084 0.934 2.084 2.084C23.729 77.505 22.796 78.438 21.646 78.438zM28.775 78.438c-1.15 0-2.083-0.933-2.083-2.084 0-1.15 0.934-2.084 2.083-2.084 1.15 0 2.083 0.934 2.083 2.084C30.858 77.505 29.925 78.438 28.775 78.438zM35.904 78.438c-1.15 0-2.083-0.933-2.083-2.084 0-1.15 0.933-2.084 2.083-2.084s2.083 0.934 2.083 2.084C37.988 77.505 37.055 78.438 35.904 78.438z" fill="#00d1cd" data-fill-palette-color="accent"></path></svg></g></svg></g><g></g></svg></g><defs></defs></svg><rect width="395.52" height="195.2564047058214" fill="none" stroke="none" visibility="hidden"></rect></g></svg></g></svg>